# OBJ generated by ONSHAPE BY PTC INC, 1.194 Units = meters
mtllib Feather.mtl
g Part 2
v -0.3 0.0005 0.621872 
v -0.3 0.0005 0.0518723 
v -0.3 -0.0005 0.0518723 
v -0.3 -0.0005 0.621872 
v -0.24 -0.0005 0.0518723 
v -0.24 -0.0005 0.621872 
v -0.24 0.0005 0.0518723 
v -0.24 0.0005 0.621872 
vn -1 6.12323e-17 0 
vn -6.12323e-17 -1 0 
vn 1 -6.12323e-17 0 
vn 6.12323e-17 1 0 
vn 0 0 1 
vn 0 0 -1 
usemtl 0.647059_0.647059_0.647059_0.000000_0.000000
o mesh0
f 1//1 2//1 3//1 
f 3//1 4//1 1//1 
o mesh1
f 4//2 3//2 5//2 
f 5//2 6//2 4//2 
o mesh2
f 6//3 5//3 7//3 
f 7//3 8//3 6//3 
o mesh3
f 8//4 7//4 2//4 
f 2//4 1//4 8//4 
o mesh4
f 8//5 1//5 4//5 
f 4//5 6//5 8//5 
o mesh5
f 7//6 5//6 3//6 
f 3//6 2//6 7//6 
g Part 5
v -0.3 0.0518723 -0.0005 
v -0.3 0.0518723 0.0005 
v -0.3 0.621872 0.0005 
v -0.3 0.621872 -0.0005 
v -0.24 0.0518723 0.0005 
v -0.24 0.621872 0.0005 
v -0.24 0.0518723 -0.0005 
v -0.24 0.621872 -0.0005 
vn -1 5.96e-17 1.63236e-18 
vn 1.63236e-18 1.83697e-16 1 
vn 1 -5.96e-17 -1.63236e-18 
vn -1.63236e-18 -1.83697e-16 -1 
vn 5.96e-17 1 -1.83697e-16 
vn -5.96e-17 -1 1.83697e-16 
o mesh6
f 9//7 10//7 11//7 
f 11//7 12//7 9//7 
o mesh7
f 11//8 10//8 13//8 
f 13//8 14//8 11//8 
o mesh8
f 14//9 13//9 15//9 
f 15//9 16//9 14//9 
o mesh9
f 16//10 15//10 9//10 
f 9//10 12//10 16//10 
o mesh10
f 16//11 12//11 11//11 
f 11//11 14//11 16//11 
o mesh11
f 15//12 13//12 10//12 
f 10//12 9//12 15//12 
g Part 1
v -0.3 0.0518723 0.0518723 
v 3.17626e-18 0.0518723 0.0518723 
v 3.17626e-18 0.0518723 -0.0518723 
v -0.3 0.0518723 -0.0518723 
v -0.3 -0.0518723 0.0518723 
v -3.17626e-18 -0.0518723 0.0518723 
v -0.3 -0.0518723 -0.0518723 
v -3.17626e-18 -0.0518723 -0.0518723 
vn 6.12323e-17 1 -1.33769e-16 
vn 0 0 1 
vn -6.12323e-17 -1 1.33769e-16 
vn 0 0 -1 
vn -1 6.12323e-17 0 
vn 1 -6.12323e-17 0 
usemtl 0.615686_0.811765_0.929412_0.000000_0.000000
o mesh12
f 17//13 18//13 19//13 
f 19//13 20//13 17//13 
o mesh13
f 21//14 22//14 18//14 
f 18//14 17//14 21//14 
o mesh14
f 23//15 24//15 22//15 
f 22//15 21//15 23//15 
o mesh15
f 23//16 20//16 19//16 
f 19//16 24//16 23//16 
o mesh16
f 21//17 17//17 20//17 
f 20//17 23//17 21//17 
o mesh17
f 24//18 19//18 18//18 
f 18//18 22//18 24//18 
g Part 4
v -0.3 -0.0005 -0.0518723 
v -0.3 0.0005 -0.0518723 
v -0.3 0.0005 -0.621872 
v -0.3 -0.0005 -0.621872 
v -0.24 0.0005 -0.0518723 
v -0.24 0.0005 -0.621872 
v -0.24 -0.0005 -0.0518723 
v -0.24 -0.0005 -0.621872 
vn -1 6.12323e-17 3.26472e-18 
vn 6.12323e-17 1 -1.22465e-16 
vn 1 -6.12323e-17 -3.26472e-18 
vn -6.12323e-17 -1 1.22465e-16 
vn -3.26472e-18 -1.22465e-16 -1 
vn 3.26472e-18 1.22465e-16 1 
usemtl 0.647059_0.647059_0.647059_0.000000_0.000000
o mesh18
f 25//19 26//19 27//19 
f 27//19 28//19 25//19 
o mesh19
f 27//20 26//20 29//20 
f 29//20 30//20 27//20 
o mesh20
f 30//21 29//21 31//21 
f 31//21 32//21 30//21 
o mesh21
f 32//22 31//22 25//22 
f 25//22 28//22 32//22 
o mesh22
f 32//23 28//23 27//23 
f 27//23 30//23 32//23 
o mesh23
f 31//24 29//24 26//24 
f 26//24 25//24 31//24 
g Part 3
v -0.3 -0.0518723 0.0005 
v -0.3 -0.0518723 -0.0005 
v -0.3 -0.621872 -0.0005 
v -0.3 -0.621872 0.0005 
v -0.24 -0.0518723 -0.0005 
v -0.24 -0.621872 -0.0005 
v -0.24 -0.0518723 0.0005 
v -0.24 -0.621872 0.0005 
vn -1 6.28647e-17 1.63236e-18 
vn -1.63236e-18 -6.12323e-17 -1 
vn 1 -6.28647e-17 -1.63236e-18 
vn 1.63236e-18 6.12323e-17 1 
vn -6.28647e-17 -1 6.12323e-17 
vn 6.28647e-17 1 -6.12323e-17 
o mesh24
f 33//25 34//25 35//25 
f 35//25 36//25 33//25 
o mesh25
f 35//26 34//26 37//26 
f 37//26 38//26 35//26 
o mesh26
f 38//27 37//27 39//27 
f 39//27 40//27 38//27 
o mesh27
f 40//28 39//28 33//28 
f 33//28 36//28 40//28 
o mesh28
f 40//29 36//29 35//29 
f 35//29 38//29 40//29 
o mesh29
f 39//30 37//30 34//30 
f 34//30 33//30 39//30 
